<svg xmlns="http://www.w3.org/2000/svg" viewBox="-18252 -2998 20.049 20.024">
  <defs>
    <style>
      .cls-1 {
        fill: #df0000;
      }
    </style>
  </defs>
  <path id="close" class="cls-1" d="M17.459,16.014,25.7,7.82a.992.992,0,0,0,0-1.414,1.016,1.016,0,0,0-1.428,0L16.04,14.593,7.73,6.284A1.012,1.012,0,0,0,6.3,7.716l8.3,8.3L6.272,24.305a.994.994,0,0,0,0,1.414,1.016,1.016,0,0,0,1.428,0l8.325-8.279L24.3,25.716a1.011,1.011,0,1,0,1.428-1.432Z" transform="translate(-18257.977 -3003.988)"/>
</svg>
